<?xml version="1.0" encoding="UTF-8" standalone="no"?><svg xmlns="http://www.w3.org/2000/svg" xmlns:xlink="http://www.w3.org/1999/xlink" contentScriptType="application/ecmascript" contentStyleType="text/css" height="151px" preserveAspectRatio="none" style="width:830px;height:151px;" version="1.1" viewBox="0 0 830 151" width="830px" zoomAndPan="magnify"><defs><filter height="300%" id="f1nwz6x4dwau2s" width="300%" x="-1" y="-1"><feGaussianBlur result="blurOut" stdDeviation="2.0"/><feColorMatrix in="blurOut" result="blurOut2" type="matrix" values="0 0 0 0 0 0 0 0 0 0 0 0 0 0 0 0 0 0 .4 0"/><feOffset dx="4.0" dy="4.0" in="blurOut2" result="blurOut3"/><feBlend in="SourceGraphic" in2="blurOut3" mode="normal"/></filter></defs><g><!--cluster ohm.softa.a09.resource--><polygon fill="#FFFFFF" filter="url(#f1nwz6x4dwau2s)" points="14,16,185,16,192,38.4883,808,38.4883,808,139,14,139,14,16" style="stroke: #000000; stroke-width: 1.5;"/><line style="stroke: #000000; stroke-width: 1.5;" x1="14" x2="192" y1="38.4883" y2="38.4883"/><text fill="#000000" font-family="sans-serif" font-size="14" font-weight="bold" lengthAdjust="spacingAndGlyphs" textLength="165" x="18" y="31.5352">ohm.softa.a09.resource</text><!--class FxImageLoaderAdapter--><rect fill="#FEFECE" filter="url(#f1nwz6x4dwau2s)" height="86.8652" id="FxImageLoaderAdapter" style="stroke: #A80036; stroke-width: 1.5;" width="367" x="22" y="43.5"/><ellipse cx="133.75" cy="59.5" fill="#ADD1B2" rx="11" ry="11" style="stroke: #A80036; stroke-width: 1.0;"/><path d="M136.2231,65.6431 Q135.6421,65.9419 135.0029,66.0913 Q134.3638,66.2407 133.6582,66.2407 Q131.1514,66.2407 129.8315,64.5889 Q128.5117,62.937 128.5117,59.8159 Q128.5117,56.6865 129.8315,55.0347 Q131.1514,53.3828 133.6582,53.3828 Q134.3638,53.3828 135.0112,53.5322 Q135.6587,53.6816 136.2231,53.9805 L136.2231,56.7031 Q135.5923,56.1221 134.9988,55.8523 Q134.4053,55.5825 133.7744,55.5825 Q132.4297,55.5825 131.7449,56.6492 Q131.0601,57.7158 131.0601,59.8159 Q131.0601,61.9077 131.7449,62.9744 Q132.4297,64.041 133.7744,64.041 Q134.4053,64.041 134.9988,63.7712 Q135.5923,63.5015 136.2231,62.9204 Z "/><text fill="#000000" font-family="sans-serif" font-size="12" lengthAdjust="spacingAndGlyphs" textLength="135" x="154.25" y="64.0352">FxImageLoaderAdapter</text><line style="stroke: #A80036; stroke-width: 1.5;" x1="23" x2="388" y1="75.5" y2="75.5"/><rect fill="none" height="6" style="stroke: #C82930; stroke-width: 1.0;" width="6" x="30" y="84.4775"/><text fill="#000000" font-family="sans-serif" font-size="11" lengthAdjust="spacingAndGlyphs" textLength="228" x="42" y="90.1348">resourceLoader: ResourceLoader&lt;Image&gt;</text><line style="stroke: #A80036; stroke-width: 1.5;" x1="23" x2="388" y1="96.4551" y2="96.4551"/><ellipse cx="33" cy="108.4326" fill="#84BE84" rx="3" ry="3" style="stroke: #038048; stroke-width: 1.0;"/><text fill="#000000" font-family="sans-serif" font-size="11" lengthAdjust="spacingAndGlyphs" textLength="172" x="42" y="111.0898">loadImage(resourcePath: String)</text><ellipse cx="33" cy="121.3877" fill="#84BE84" rx="3" ry="3" style="stroke: #038048; stroke-width: 1.0;"/><text fill="#000000" font-family="sans-serif" font-size="11" lengthAdjust="spacingAndGlyphs" textLength="341" x="42" y="124.0449">loadImage(resourceContext: ClassLoader, resourcePath: String)</text><!--class ResourceLoader--><rect fill="#FEFECE" filter="url(#f1nwz6x4dwau2s)" height="60.9551" id="ResourceLoader" style="stroke: #A80036; stroke-width: 1.5;" width="351" x="449" y="56.5"/><ellipse cx="567.75" cy="72.5" fill="#ADD1B2" rx="11" ry="11" style="stroke: #A80036; stroke-width: 1.0;"/><path d="M570.2231,78.6431 Q569.6421,78.9419 569.0029,79.0913 Q568.3638,79.2407 567.6582,79.2407 Q565.1514,79.2407 563.8315,77.5889 Q562.5117,75.937 562.5117,72.8159 Q562.5117,69.6865 563.8315,68.0347 Q565.1514,66.3828 567.6582,66.3828 Q568.3638,66.3828 569.0112,66.5322 Q569.6587,66.6816 570.2231,66.9805 L570.2231,69.7031 Q569.5923,69.1221 568.9988,68.8523 Q568.4053,68.5825 567.7744,68.5825 Q566.4297,68.5825 565.7449,69.6492 Q565.0601,70.7158 565.0601,72.8159 Q565.0601,74.9077 565.7449,75.9744 Q566.4297,77.041 567.7744,77.041 Q568.4053,77.041 568.9988,76.7712 Q569.5923,76.5015 570.2231,75.9204 Z "/><text fill="#000000" font-family="sans-serif" font-size="12" lengthAdjust="spacingAndGlyphs" textLength="93" x="588.25" y="77.0352">ResourceLoader</text><rect fill="#FFFFFF" height="16.1328" style="stroke: #000000; stroke-width: 1.0; stroke-dasharray: 2.0,2.0;" width="10" x="793" y="53.5"/><text fill="#000000" font-family="sans-serif" font-size="12" font-style="italic" lengthAdjust="spacingAndGlyphs" textLength="8" x="794" y="66.1016">T</text><line style="stroke: #A80036; stroke-width: 1.5;" x1="450" x2="799" y1="88.5" y2="88.5"/><line style="stroke: #A80036; stroke-width: 1.5;" x1="450" x2="799" y1="96.5" y2="96.5"/><ellipse cx="460" cy="108.4775" fill="#84BE84" rx="3" ry="3" style="stroke: #038048; stroke-width: 1.0;"/><text fill="#000000" font-family="sans-serif" font-size="11" lengthAdjust="spacingAndGlyphs" textLength="325" x="469" y="111.1348">loadResource(resourceContext: ClassLoader, path: String): T</text><!--link FxImageLoaderAdapter to ResourceLoader--><path d="M402.3034,87 C417.8432,87 433.4766,87 448.8597,87 " fill="none" id="FxImageLoaderAdapter-ResourceLoader" style="stroke: #A80036; stroke-width: 1.0;"/><polygon fill="#A80036" points="389.2795,87,395.2795,91,401.2795,87,395.2795,83,389.2795,87" style="stroke: #A80036; stroke-width: 1.0;"/><!--
@startuml

left to right direction

package ohm.softa.a09.resource {

	class FxImageLoaderAdapter {
		- resourceLoader: ResourceLoader<Image>
		+ loadImage(resourcePath: String)
		+ loadImage(resourceContext: ClassLoader, resourcePath: String)
	}

	class ResourceLoader<T> {
		+ loadResource(resourceContext: ClassLoader, path: String): T
	}

	FxImageLoaderAdapter *- - ResourceLoader
}
@enduml

PlantUML version 1.2019.03(Sun Mar 10 12:04:44 CET 2019)
(GPL source distribution)
Java Runtime: OpenJDK Runtime Environment
JVM: OpenJDK 64-Bit Server VM
Java Version: 12.0.1+12
Operating System: Mac OS X
OS Version: 10.14.4
Default Encoding: UTF-8
Language: en
Country: GB
--></g></svg>